<svg xmlns="http://www.w3.org/2000/svg" viewBox="0 0 24 24" width="24" height="24" fill="none" stroke="currentColor" stroke-width="2"><circle cx="12" cy="12" r="3"/><path d="M19.4 15a1.65 1.65 0 0 0 .33 1.82l.06.06a2 2 0 0 1-2.83 2.83l-.06-.06a1.65 1.65 0 0 0-1.82-.33 1.65 1.65 0 0 0-1 1.51V21a2 2 0 0 1-4 0v-.09a1.65 1.65 0 0 0-1-1.51 1.65 1.65 0 0 0-1.82.33l-.06.06A2 2 0 0 1 2.28 16.9l.06-.06a1.65 1.65 0 0 0 .33-1.82 1.65 1.65 0 0 0-1.51-1H3a2 2 0 0 1 0-4h.09a1.65 1.65 0 0 0 1.51-1 1.65 1.65 0 0 0-.33-1.82l-.06-.06A2 2 0 0 1 7.9 2.28l.06.06a1.65 1.65 0 0 0 1.82.33h.09a1.65 1.65 0 0 0 1-1.51V3a2 2 0 0 1 4 0v.09c.12.6.54 1.11 1 1.51h.09a1.65 1.65 0 0 0 1.82-.33l.06-.06A2 2 0 0 1 21.72 7.1l-.06.06a1.65 1.65 0 0 0-.33 1.82v.09c.4.46.91.88 1.51 1h.09a2 2 0 0 1 0 4h-.09c-.6.12-1.11.54-1.51 1z"/></svg>